<mxfile host="app.diagrams.net" modified="2024-02-19T05:46:32.918Z" agent="Mozilla/5.0 (Windows NT 10.0; WOW64) AppleWebKit/537.36 (KHTML, like Gecko) Chrome/86.0.4240.198 Safari/537.36" etag="3B7hUaM2EnSqZZBSQ3Sj" version="23.1.4" type="github">
  <diagram id="C5RBs43oDa-KdzZeNtuy" name="Page-1">
    <mxGraphModel dx="936" dy="543" grid="0" gridSize="10" guides="1" tooltips="1" connect="1" arrows="1" fold="1" page="1" pageScale="1" pageWidth="827" pageHeight="1169" math="0" shadow="0">
      <root>
        <mxCell id="WIyWlLk6GJQsqaUBKTNV-0" />
        <mxCell id="WIyWlLk6GJQsqaUBKTNV-1" parent="WIyWlLk6GJQsqaUBKTNV-0" />
        <mxCell id="TbHHPEP9z0c9AkWy8_be-2" style="edgeStyle=orthogonalEdgeStyle;rounded=0;orthogonalLoop=1;jettySize=auto;html=1;exitX=0.5;exitY=1;exitDx=0;exitDy=0;exitPerimeter=0;fontSize=18;" parent="WIyWlLk6GJQsqaUBKTNV-1" source="TbHHPEP9z0c9AkWy8_be-18" target="TbHHPEP9z0c9AkWy8_be-1" edge="1">
          <mxGeometry relative="1" as="geometry">
            <mxPoint x="245.99999999999977" y="211.9999999999999" as="sourcePoint" />
          </mxGeometry>
        </mxCell>
        <mxCell id="TbHHPEP9z0c9AkWy8_be-7" style="edgeStyle=orthogonalEdgeStyle;rounded=0;orthogonalLoop=1;jettySize=auto;html=1;exitX=0.5;exitY=1;exitDx=0;exitDy=0;entryX=0.5;entryY=0;entryDx=0;entryDy=0;" parent="WIyWlLk6GJQsqaUBKTNV-1" source="TbHHPEP9z0c9AkWy8_be-1" target="TbHHPEP9z0c9AkWy8_be-3" edge="1">
          <mxGeometry relative="1" as="geometry" />
        </mxCell>
        <mxCell id="TbHHPEP9z0c9AkWy8_be-1" value="建立识别框架" style="rounded=1;whiteSpace=wrap;html=1;absoluteArcSize=1;arcSize=14;strokeWidth=2;fontSize=18;" parent="WIyWlLk6GJQsqaUBKTNV-1" vertex="1">
          <mxGeometry x="144.75" y="273" width="202.5" height="61" as="geometry" />
        </mxCell>
        <mxCell id="TbHHPEP9z0c9AkWy8_be-8" style="edgeStyle=orthogonalEdgeStyle;rounded=0;orthogonalLoop=1;jettySize=auto;html=1;exitX=0.5;exitY=1;exitDx=0;exitDy=0;entryX=0.5;entryY=0;entryDx=0;entryDy=0;" parent="WIyWlLk6GJQsqaUBKTNV-1" source="TbHHPEP9z0c9AkWy8_be-3" target="TbHHPEP9z0c9AkWy8_be-4" edge="1">
          <mxGeometry relative="1" as="geometry" />
        </mxCell>
        <mxCell id="TbHHPEP9z0c9AkWy8_be-3" value="初始信度分配" style="rounded=1;whiteSpace=wrap;html=1;absoluteArcSize=1;arcSize=14;strokeWidth=2;fontSize=18;" parent="WIyWlLk6GJQsqaUBKTNV-1" vertex="1">
          <mxGeometry x="144.75" y="395" width="202.5" height="61" as="geometry" />
        </mxCell>
        <mxCell id="cLg9BQNvJGjDU0CPVTHr-0" style="edgeStyle=orthogonalEdgeStyle;rounded=0;orthogonalLoop=1;jettySize=auto;html=1;exitX=0.5;exitY=1;exitDx=0;exitDy=0;entryX=0.5;entryY=0;entryDx=0;entryDy=0;" edge="1" parent="WIyWlLk6GJQsqaUBKTNV-1" source="TbHHPEP9z0c9AkWy8_be-4" target="TbHHPEP9z0c9AkWy8_be-9">
          <mxGeometry relative="1" as="geometry" />
        </mxCell>
        <mxCell id="TbHHPEP9z0c9AkWy8_be-4" value="计算各命题的信任度" style="rounded=1;whiteSpace=wrap;html=1;absoluteArcSize=1;arcSize=14;strokeWidth=2;fontSize=18;" parent="WIyWlLk6GJQsqaUBKTNV-1" vertex="1">
          <mxGeometry x="144.75" y="517" width="202.5" height="61" as="geometry" />
        </mxCell>
        <mxCell id="TbHHPEP9z0c9AkWy8_be-14" style="edgeStyle=orthogonalEdgeStyle;rounded=0;orthogonalLoop=1;jettySize=auto;html=1;exitX=0.5;exitY=1;exitDx=0;exitDy=0;" parent="WIyWlLk6GJQsqaUBKTNV-1" source="TbHHPEP9z0c9AkWy8_be-9" target="TbHHPEP9z0c9AkWy8_be-11" edge="1">
          <mxGeometry relative="1" as="geometry" />
        </mxCell>
        <mxCell id="TbHHPEP9z0c9AkWy8_be-9" value="证据合成" style="rounded=1;whiteSpace=wrap;html=1;absoluteArcSize=1;arcSize=14;strokeWidth=2;fontSize=18;" parent="WIyWlLk6GJQsqaUBKTNV-1" vertex="1">
          <mxGeometry x="436" y="273" width="202.5" height="61" as="geometry" />
        </mxCell>
        <mxCell id="TbHHPEP9z0c9AkWy8_be-11" value="选取规则作出决策" style="rounded=1;whiteSpace=wrap;html=1;absoluteArcSize=1;arcSize=14;strokeWidth=2;fontSize=18;" parent="WIyWlLk6GJQsqaUBKTNV-1" vertex="1">
          <mxGeometry x="436" y="395" width="202.5" height="61" as="geometry" />
        </mxCell>
        <mxCell id="TbHHPEP9z0c9AkWy8_be-16" style="edgeStyle=orthogonalEdgeStyle;rounded=0;orthogonalLoop=1;jettySize=auto;html=1;exitX=0.5;exitY=1;exitDx=0;exitDy=0;entryX=0.5;entryY=0;entryDx=0;entryDy=0;entryPerimeter=0;" parent="WIyWlLk6GJQsqaUBKTNV-1" source="TbHHPEP9z0c9AkWy8_be-11" target="TbHHPEP9z0c9AkWy8_be-17" edge="1">
          <mxGeometry relative="1" as="geometry">
            <mxPoint x="537.25" y="497.9999999999998" as="targetPoint" />
          </mxGeometry>
        </mxCell>
        <mxCell id="TbHHPEP9z0c9AkWy8_be-17" value="&lt;font style=&quot;font-size: 18px;&quot;&gt;结束&lt;/font&gt;" style="strokeWidth=2;html=1;shape=mxgraph.flowchart.terminator;whiteSpace=wrap;" parent="WIyWlLk6GJQsqaUBKTNV-1" vertex="1">
          <mxGeometry x="447.13" y="513" width="180.25" height="69" as="geometry" />
        </mxCell>
        <mxCell id="TbHHPEP9z0c9AkWy8_be-18" value="&lt;font style=&quot;font-size: 18px;&quot;&gt;开始&lt;/font&gt;" style="strokeWidth=2;html=1;shape=mxgraph.flowchart.terminator;whiteSpace=wrap;" parent="WIyWlLk6GJQsqaUBKTNV-1" vertex="1">
          <mxGeometry x="155.87" y="153" width="180.25" height="69" as="geometry" />
        </mxCell>
      </root>
    </mxGraphModel>
  </diagram>
</mxfile>
